<?xml version="1.0" encoding="utf-8"?>
<!-- Generator: Adobe Illustrator 27.9.4, SVG Export Plug-In . SVG Version: 9.03 Build 54784)  -->
<svg version="1.1" id="Capa_1" xmlns="http://www.w3.org/2000/svg" xmlns:xlink="http://www.w3.org/1999/xlink" x="0px" y="0px"
	 viewBox="0 0 15 15" style="enable-background:new 0 0 15 15;" xml:space="preserve">
<style type="text/css">
	.st0{fill:#6A6A6A;}
</style>
<path class="st0" d="M0.24,0.32c0.43-0.43,1.07-0.43,1.5,0l0,0l5.79,5.79l5.57-5.57c0.43-0.43,1.07-0.43,1.5,0
	c0.43,0.43,0.43,1.07,0,1.5L9.03,7.61l5.57,5.57c0.43,0.43,0.43,1.07,0,1.5c-0.43,0.43-1.07,0.43-1.5,0L7.53,9.11l-5.57,5.57
	c-0.43,0.43-1.07,0.43-1.5,0s-0.43-1.07,0-1.5l5.57-5.57L0.24,2.04C0.03,1.61,0.03,0.75,0.24,0.32L0.24,0.32"/>
</svg>
